<svg width="161" height="109" fill="none" xmlns="http://www.w3.org/2000/svg"><path fill-rule="evenodd" clip-rule="evenodd" d="M50.866 18.378c4.645-7.646 9.212-15.134 10.157-16.631A5.26 5.26 0 0 1 61.62.95c.095-.109.184-.211.269-.326.344-.464.654-.643.957-.622.317.02.626.262.956.622.551.63 7.693 9.478 16.039 20.197 15.117 19.468 15.195 19.547 16.849 18.05 6.34-5.661 11.271-9.829 13.742-11.69v-5.07h-5.495v-3.073h5.495V16.93h-2.721v-3.073h2.721v-2.71h3.19v2.71h2.72v2.772h-2.72v2.409h5.186v3.072h-5.186v5.3h-.007c1.988 2.415 21.47 22.886 40.079 42.121 4.094 4.177 7.086 7.803 6.693 8.04-.315.236-1.733.551-3.15.63-2.283.237-3.149-.473-10.865-8.906l-8.346-9.222-3.465 1.655c-1.968.946-3.7 1.576-3.858 1.34-.157-.158.079-2.05.552-4.099l.866-3.783-10.787-10.72-10.708-10.797-7.007 7.487c-3.859 4.099-7.953 8.513-9.055 9.853l-2.047 2.443 2.677 10.168c1.496 5.517 2.598 10.167 2.44 10.325-.078.158-3.7-3.468-7.873-8.04-4.251-4.571-8.03-8.276-8.424-8.276-.394 0-3.524.812-8.456 3.57-3.674 2.056-12.645 5.968-11.858 4.706.315-.63 4.867-7.33 8.961-12.453 2.443-3.057 2.568-3.088 4.766-3.637a56.79 56.79 0 0 0 1.469-.383c.697-.2 1.52-.43 2.386-.673h.002c1.868-.525 3.929-1.103 5.328-1.534l3.7-1.024-11.338-15.685C70 21.846 64.409 14.279 63.858 13.648c-.687-.687-6.467 8.12-10.508 14.496-1.136 1.794-3.95.987-3.95-1.136V23.67c0-1.865.507-3.695 1.467-5.293Zm-5.111 10.895c-.318-2.593-.762-3.604-1.905-4.363-1.967-1.264-6.22-1.201-7.553.127-2.22 2.15-2.411 3.983-.698 7.27l1.587 3.035-1.84 2.15c-1.016 1.138-4.443 4.047-7.617 6.449-3.11 2.403-5.712 4.552-5.712 4.805 0 .57 5.649 5.058 8.25 6.639l1.841 1.011-1.904 2.72c-1.46 2.086-1.84 3.413-1.84 5.88 0 1.77-.762 5.373-1.65 8.092-.89 2.719-1.65 5.943-1.714 7.144-.127 2.15-.19 2.213-2.476 2.024-1.523-.127-4.316.695-8.695 2.465-6.347 2.593-6.41 2.593-9.267 1.707-1.586-.569-2.983-.821-3.11-.569-.127.19-.571 2.72-1.015 5.501-.572 3.857-.572 5.5-.064 6.512 1.08 1.897 1.65 1.644 2.92-1.138.571-1.39 2.221-3.414 3.681-4.552 2.349-1.897 3.11-2.086 10.536-2.908 9.394-1.012 11.235-1.644 12.504-4.047.508-1.011 1.27-1.833 1.714-1.833.444 0 1.65-1.897 2.602-4.3a156.113 156.113 0 0 1 2.031-4.489c.127-.126 1.904 1.328 4.062 3.162 2.285 2.086 4.316 3.35 5.014 3.224 1.65-.253 3.364 2.213 2.603 3.73-1.08 1.897-.699 4.553 1.333 10.433 1.84 5.5 1.967 6.702 1.079 12.581-.19 1.202.19 1.265 6.41 1.265 7.553 0 8.759-.759 4.316-2.845-1.523-.696-3.681-2.213-4.76-3.351l-1.968-2.023-.38-9.8c-.382-8.852-.572-10.053-1.968-12.14-.825-1.327-1.524-2.718-1.587-3.16 0-.443-2.285-2.846-5.014-5.248-4.76-4.3-6.093-5.817-5.395-6.513.127-.19 4.633 1.012 9.965 2.593 4.02 1.211 7.635 2.322 11.023 3.364 13.41 4.122 23.267 7.152 40.619 10.988l1.802.265c2.346.346 4.471.658 5.18.81 3.237.632-.571 1.58-8.442 2.023-6.791.442-8.695.822-15.042 3.098-9.013 3.287-11.488 3.414-14.027.695-1.016-1.075-1.84-2.34-1.84-2.782 0-.505-.255-1.075-.635-1.264-.381-.253-.635.316-.635 1.328 0 1.074.825 2.529 2.539 4.172l2.538 2.593 4.634-.316c2.666-.19 5.839-.822 7.616-1.644 2.603-1.138 2.983-1.202 2.983-.316 0 1.517-4.76 5.69-6.918 6.132-.54.095-1.238.237-1.936.38-.698.142-1.396.284-1.936.38-1.079.189-2.475 1.137-3.237 2.212-.888 1.264-1.84 1.834-3.046 1.834-1.904 0-3.237 1.011-3.237 2.402 0 1.707 4.316.379 7.109-2.086 1.396-1.265 2.665-2.15 2.856-1.96.507.505-2.793 4.299-5.395 6.069-2.984 2.087-3.3 3.162-.826 3.162 1.46 0 2.857-.822 5.395-3.098 2.92-2.656 4.063-3.225 8.061-4.11 4.76-1.075 11.171-4.173 11.742-5.754.19-.442 1.08-1.138 2.031-1.517 1.46-.632 2.539-.38 6.792 1.265 3.808 1.517 6.156 2.023 9.52 2.086 4.126.063 4.507.19 5.205 1.707 1.206 2.466 1.967 2.845 7.362 3.667 2.666.379 6.855 1.391 9.267 2.213 4.126 1.454 6.982 1.391 5.014 0-1.904-1.454-9.013-4.742-11.171-5.248l-2.348-.506 3.427-1.011c1.905-.632 4.761-1.075 6.411-1.075 2.92 0 6.03-1.454 5.395-2.592-.698-1.075-9.965-.632-13.837.695-1.967.696-3.871 1.265-4.252 1.265-1.65 0 .19-6.07 2.666-8.662 1.84-1.96 3.427-1.834 6.855.443 3.49 2.276 4.506 2.339 7.426.379L145 86.68l-2.539-1.643c-1.396-.886-2.793-2.34-3.173-3.415-.318-1.011-1.587-2.402-2.73-3.16-1.206-.696-2.538-1.898-2.983-2.593-1.079-1.77-2.158-1.644-1.65.19.444 1.77.127 1.896-8.315 2.908-3.11.442-6.727 1.011-7.997 1.328-3.554.885-6.537.695-16.439-1.012-14.474-3.366-20.673-5.302-30.224-8.286-5.067-1.583-11.078-3.46-19.768-6.003-8.124-2.34-9.394-2.908-9.394-4.046 0-2.023.762-2.719 5.142-4.679 4.125-1.834 9.457-6.07 9.457-7.46 0-.76-2.412-2.72-3.237-2.72-.254 0-1.016.95-1.65 2.087-1.397 2.34-7.046 5.185-6.22 3.098 1.332-3.161 1.078-6.322-.635-9.484-2.032-3.73-1.778-5.184.825-5.184 1.587 0 1.904-.316 2.285-1.96.19-1.075.19-3.477 0-5.374Z" fill="#000"/></svg>